<svg width="18" height="24" viewBox="0 0 18 24" fill="none" xmlns="http://www.w3.org/2000/svg">
<path d="M5.27299 20.3132C5.18277 20.4087 5.11225 20.521 5.06543 20.6437C5.01861 20.7665 4.99643 20.8972 5.00014 21.0285C5.00386 21.1598 5.0334 21.2891 5.08708 21.409C5.14076 21.5289 5.21752 21.637 5.31299 21.7272C5.40846 21.8175 5.52077 21.888 5.6435 21.9348C5.76623 21.9816 5.89698 22.0038 6.02828 22.0001C6.15958 21.9964 6.28887 21.9668 6.40875 21.9132C6.52864 21.8595 6.63678 21.7827 6.72699 21.6872L15.227 12.6872C15.4025 12.5016 15.5003 12.2558 15.5003 12.0002C15.5003 11.7447 15.4025 11.4989 15.227 11.3132L6.727 2.31224C6.63737 2.21468 6.52926 2.13589 6.40893 2.08047C6.2886 2.02505 6.15846 1.99408 6.02607 1.98938C5.89367 1.98468 5.76167 2.00633 5.63771 2.05307C5.51375 2.09982 5.40032 2.17073 5.304 2.26168C5.20768 2.35263 5.13039 2.46182 5.07662 2.5829C5.02286 2.70397 4.99368 2.83453 4.9908 2.96698C4.98791 3.09942 5.01138 3.23112 5.05982 3.35442C5.10826 3.47773 5.18072 3.59017 5.27299 3.68524L13.125 12.0002L5.27299 20.3132Z" fill="white"/>
</svg>
