<svg width="21" height="20" viewBox="0 0 21 20" fill="none" xmlns="http://www.w3.org/2000/svg">
<path fill-rule="evenodd" clip-rule="evenodd" d="M17.2566 10.0002C17.2566 11.7683 16.5542 13.464 15.304 14.7142C14.0537 15.9645 12.3581 16.6668 10.5899 16.6668C8.82184 16.6668 7.12614 15.9645 5.8759 14.7142C4.62566 13.464 3.92328 11.7683 3.92328 10.0002C3.92328 8.23205 4.62566 6.53636 5.8759 5.28612C7.12614 4.03588 8.82184 3.3335 10.5899 3.3335C12.3581 3.3335 14.0537 4.03588 15.304 5.28612C16.5542 6.53636 17.2566 8.23205 17.2566 10.0002ZM9.75078 12.191V13.6968H11.2858V12.191H9.75078ZM9.61411 8.96433H8.17661C8.18328 8.61266 8.24328 8.28933 8.35745 7.99683C8.47161 7.7035 8.63078 7.44933 8.83661 7.23433C9.04605 7.0161 9.29902 6.84434 9.57911 6.73016C9.88835 6.60593 10.2192 6.54446 10.5524 6.54933C11.0149 6.54933 11.4016 6.61266 11.7108 6.74016C12.0208 6.86766 12.2699 7.02516 12.4591 7.21516C12.789 7.53742 12.9788 7.97657 12.9874 8.43766C12.9874 8.74933 12.9458 9.00683 12.8649 9.20933C12.7252 9.56878 12.4796 9.87737 12.1608 10.0943C12.0141 10.1943 11.8758 10.296 11.7449 10.3968C11.6149 10.4977 11.4991 10.6135 11.3983 10.7443C11.2923 10.8872 11.2264 11.0558 11.2074 11.2327V11.6043H9.88744V11.1643C9.90744 10.8843 9.96078 10.6493 10.0491 10.4602C10.1366 10.2718 10.2391 10.1102 10.3574 9.97683C10.4741 9.8435 10.5983 9.72683 10.7283 9.62933C10.8526 9.53634 10.9733 9.43848 11.0899 9.336C11.2008 9.2385 11.2899 9.131 11.3591 9.0135C11.4314 8.87869 11.4635 8.72599 11.4516 8.5735C11.4516 8.2735 11.3783 8.05183 11.2316 7.9085C11.0849 7.76516 10.8816 7.6935 10.6208 7.6935C10.4449 7.6935 10.2933 7.72766 10.1658 7.796C10.0418 7.86197 9.93483 7.95582 9.85328 8.07016C9.77161 8.18433 9.71161 8.31766 9.67245 8.47016C9.63328 8.62433 9.61411 8.7885 9.61411 8.96433Z" fill="#525C69"/>
</svg>
